Patient4_TMGait_0pt3_02_right_17_EMG.mot
version=1
nRows=29
nColumns=33
inDegrees=no
endheader
time	1LAddLong	2LGlutMax	3LGlutMed	4LIliopsoas	5LSemiMemb	6LBicFemLong	7LRecFem	8LVastMed	9LVastLat	10LGasMed	11LTibAnt	12lTibPost	13LPeroneusLong	14LSol	15LExtDigLong	16LFlexDigLong	17RAddLong	18RGlutMax	19RGlutMed	20RIliopsoas	21RSemiMemb	22RBicFemLong	23RRecFem	24RVastMed	25RVastLat	26RGasMed	27RTibAnt	28RTibPost	29RPeroneusLong	30RSol	31RExtDigLong	32RFlexDigLong
33.36	-0.019379	0.13901	-0.016479	-0.009155	-0.053558	-0.019684	0.015869	0.006866	-0.003357	-0.012512	-0.021973	-0.023193	-0.11383	0.075836	-0.025787	-0.044098	0.06424	-0.18341	0.13931	0.067902	0.28976	-0.15152	0.011139	-0.11215	-0.052948	-0.010834	0.074005	-0.000763	-0.028534	-0.11017	-0.003052	-0.021057
33.361	-0.016327	0.15549	-0.043945	-0.009003	-0.10651	-0.02533	0.015717	0.014191	-0.002136	-0.006409	-0.007172	-0.021362	-0.12146	-0.019836	0.03952	-0.039215	0.053711	-0.18143	0.061035	0.023346	0.27283	-0.11353	-0.035095	-0.023956	-0.027313	-0.011444	0.031891	-0.016327	-0.082245	-0.41504	-0.000916	-0.012054
33.362	-0.015259	0.14893	-0.052643	0.00885	-0.10315	-0.007477	-0.00946	0.019073	0.017853	-0.0177	-0.014954	-0.020294	-0.11276	0.032043	0.038147	-0.024567	0.001068	-0.1799	0.051422	0.027618	0.047607	-0.023804	-0.10223	-0.045166	-0.019073	0.000763	-0.021362	-0.092316	0.016174	-0.44311	-0.004272	-0.014038
33.363	-0.016937	0.12787	0.030212	0.012665	-0.011292	-0.005035	-0.048828	0.024872	0.03418	-0.011444	-0.024872	-0.02121	-0.1561	0.024719	0.053711	-0.024719	-0.039368	-0.27741	0.24475	-0.002747	-0.19699	0.015411	-0.085602	-0.081024	0.002594	0.004272	0.043488	-0.049438	-0.11704	0.10956	-0.003357	-0.014038
33.364	-0.011139	0.10986	0.15472	0.011139	-0.008087	0.010986	-0.095825	0.026398	0.005035	-0.018616	-0.015869	-0.023193	-0.16556	0.000458	0.046387	-0.015259	0.01709	-0.27344	0.18982	-0.013428	0.11734	-0.090942	0.075684	-0.11307	-0.023346	-0.006866	0.013123	0.024719	-0.27496	0.65918	0.006561	-0.007629
33.365	-0.00061	0.11551	0.14725	0.02121	0.062103	0.01236	-0.099335	0.019684	-0.011597	-0.038605	-0.006104	-0.035095	-0.1593	0	0.025024	-0.026855	0.021057	-0.27786	0.11398	-0.020142	0.13977	-0.099335	0.1622	-0.091248	-0.071869	-0.00061	0.037231	-0.040436	-0.42969	0.84946	-0.005188	-0.006104
33.366	0.008698	0.10712	0.089722	0.021515	0.081482	0.006104	-0.053253	0.011749	0.019379	-0.021667	0.027924	-0.028076	-0.091553	-0.007477	0.015869	-0.018463	-0.015564	-0.22553	0.22507	-0.036469	-0.099487	-0.013123	0.13458	-0.096893	-0.060272	0.00946	0.009308	-0.040131	-0.14069	0.25955	-0.002441	-0.005951
33.367	0.017395	0.14481	0.020447	0.017242	0.086823	0.014496	-0.028534	-0.006866	0.049591	-0.013123	0.05722	-0.024261	-0.08316	-0.014801	0.044556	-0.019073	-0.040131	-0.19073	0.046844	-0.023346	-0.29999	0.17029	-0.085144	-0.18799	-0.023956	-0.000458	-0.025787	-0.067902	0.05127	-0.59204	-0.002747	-0.015717
33.368	0.038605	0.12451	-0.046539	-0.004425	0.036469	0.018463	-0.041046	-0.014038	0.017395	0.001221	0.072632	-0.030365	-0.092316	-0.000916	0.056458	-0.016632	-0.045471	-0.14923	0.057526	-0.013428	-0.19592	0.27115	-0.14114	-0.02182	0.044403	0.001831	-0.022888	0.052643	-0.099182	-0.88867	-0.005188	-0.008698
33.369	0.037689	0.057678	-0.024261	0.00473	-0.029755	0.016937	-0.064697	-0.012054	0.020599	-0.014954	0.055084	-0.029449	-0.070801	0.009613	0.029907	-0.026398	-0.018921	-0.28564	0.29862	0.009308	0.080109	0.17807	0.010834	-0.028992	0.066681	0.014191	-0.031586	0.18753	-0.011597	-0.67352	-0.004425	-0.007782
33.37	0.043182	0.040588	0.12222	-0.003052	-0.009003	-0.037079	-0.059967	-0.013885	-0.010681	-0.024719	0.005951	-0.023956	-0.034637	-0.013428	0.1564	-0.027008	0.017548	-0.24399	0.40222	-0.00412	0.32394	0.030365	0.12161	-0.032959	0.045776	0.009918	-0.020752	0.081329	0.22217	0.043793	-0.000153	-0.008698
33.371	0.039825	0.052338	0.097961	-0.00351	0.038757	0.003357	-0.070496	-0.013275	-0.002594	-0.018311	-0.027161	-0.019531	-0.038605	-0.010376	0.1947	-0.010681	0.010223	-0.19806	-0.047913	0.066833	0.19272	-0.02243	0.10407	0.077667	0.13412	-0.003662	0.017853	0.033264	0.34302	0.76614	0.001526	-0.01297
33.372	0.043488	0.051422	0.059662	0.000305	0.006104	0.051422	-0.081482	-0.008698	0.002747	-0.006714	-0.081482	-0.025177	-0.018921	0.005646	0.063324	-0.009918	0.012054	-0.19196	-0.24048	0.043182	0.11459	-0.010986	-0.11261	0.17593	0.21225	-0.021667	0.025177	-0.058441	0.31586	0.34195	0.002136	-0.014343
33.373	0.035706	0.060577	0.05661	0.002899	0.041504	0.11917	-0.044861	-0.007172	0.023193	-0.003967	-0.059967	-0.014191	0.011139	0.011902	0.001373	-0.014496	-0.003357	-0.16022	0.014191	0.026093	-0.13519	0.089569	-0.3241	0.22476	0.29663	-0.025787	0.013885	0.054321	0.20233	0.18036	-0.003052	-0.014648
33.374	0.031281	0.043182	0.040588	0.000153	0.12253	0.1239	-0.037079	-0.003357	-0.000458	-0.014648	-0.019684	-0.015564	0.021057	0.021362	0.048981	-0.010376	0.006561	-0.16007	-0.34912	0.029755	-0.42847	0.13123	-0.30731	0.20325	-0.036774	-0.007172	0.015869	0.025787	0.1091	0.15945	-0.002594	-0.011597
33.375	0.031738	0.054932	0.015106	0.00351	0.076294	0.1561	-0.028534	-0.00473	-0.003815	-0.012512	-0.074005	-0.015717	0.0354	0.019073	-0.029144	-0.002441	0.019836	-0.16205	-0.31006	-0.063171	-0.31036	0.08667	-0.21332	0.22369	-0.35767	0.003815	-0.032654	-0.018921	0.14862	0.11444	-0.009308	-0.01236
33.376	0.021362	0.045319	0.029907	-0.000153	0.045776	0.14786	-0.035248	-0.007324	0.006561	-0.004425	0.002747	-0.01236	0.03006	0.005188	-0.15503	-0.003815	0.010071	-0.16464	-0.05127	-0.069885	0.058899	0.008392	-0.32455	-0.051727	-0.15503	-0.000305	-0.10269	0.014038	0.16144	-0.12665	-0.001068	-0.011444
33.377	0.016479	0.052185	0.029144	-0.001831	0.009308	0.10971	-0.038605	-0.001373	0.020752	0.019531	0.057983	-0.004578	0.005798	-0.044556	0.11353	-0.019531	0.008392	-0.1474	0.75012	-0.062408	0.3923	-0.028687	-0.29465	-0.298	-0.043182	-0.011444	-0.025024	0.010834	0.11856	-0.058136	-0.000305	-0.009308
33.378	0.006256	0.015259	0.027313	0.008545	-0.006104	-0.019379	-0.005035	-0.000763	-0.010223	0.040283	0.1413	-0.037689	-0.015106	-0.011597	-0.18524	-0.017395	0.003357	-0.15945	1.2901	-0.030212	0.29282	-0.035858	-0.27679	-0.3183	0.001831	-0.012817	0.020294	0.003204	0.07309	0.081635	-0.003357	0.000458
33.379	-0.002594	0.02533	-0.010376	-0.003967	0.032806	-0.09964	0.014191	-0.003967	-0.007782	0.018616	0.094452	-0.007782	0.005646	0.020905	0.40115	-0.023041	0.035858	-0.18356	0.64728	0.053558	0.11765	-0.061646	-0.2385	-0.20569	-0.02182	-0.007782	-0.044708	-0.008698	0.06012	0.07782	-0.001373	-0.00473
33.38	-0.002136	0.028381	-0.063171	-0.003967	0.025635	-0.084991	0.030823	-0.005798	-0.003357	-0.046234	-0.15747	0.007782	0.098114	0.053101	-0.054016	-0.005951	0.05249	-0.18326	0.20767	0.022736	-0.018158	-0.005341	-0.19211	-0.12833	-0.014038	-0.002441	0.1387	-0.014343	0.084991	0.045471	-0.002747	-0.006561
33.381	-0.013123	0.019379	-0.069885	0.001678	-0.007172	-0.072021	0.056763	-0.001526	-0.016632	-0.036163	0.062408	0.006256	0.11307	-0.068054	-0.009003	-0.00824	0.035553	-0.16815	-0.14008	0.064545	-0.17441	0.069122	-0.11704	-0.13504	-0.028076	0.00061	0.096893	-0.020447	0.055389	0.012054	0.000305	-0.009918
33.382	-0.017395	0.019531	-0.041046	0.009613	-0.048676	-0.032654	0.059357	0.00412	-0.005341	-0.019684	-0.090179	0.006409	0.093842	-0.014038	-0.005646	-0.003052	0.004883	-0.14038	-0.1268	0.052032	-0.019684	0.037842	-0.10864	-0.09903	-0.032349	0.006104	-0.05661	-0.018921	0.067139	-0.076447	-0.007935	-0.01236
33.383	-0.02243	0.006866	0.047455	0.011292	-0.046387	0.011139	0.040741	0.003967	-0.020447	-0.016785	-0.24139	0.006256	0.10971	-0.010986	-0.23071	0.000458	0.030365	-0.10513	-0.23956	0.0354	-0.048065	-0.074768	-0.069275	-0.10834	-0.018463	0.005646	-0.11993	-0.022583	0.019989	-0.066223	-0.003052	-0.003662
33.384	-0.024109	-0.02655	0.04776	0.011597	-0.067596	-0.003204	-0.008698	0.00473	-0.009918	0.011444	-0.11597	0.007172	0.067139	-0.1149	-0.32288	-0.006256	0.034485	-0.071716	-0.24857	-0.009613	0.14191	-0.13519	-0.02243	-0.12543	-0.043488	0.003357	-0.005951	-0.018005	-0.11887	-0.034943	-0.002441	-0.005493
33.385	-0.016632	0.003662	0.062714	0.005646	-0.069275	-0.032806	-0.077362	0.000763	0.014191	0.015411	-0.016785	0.020447	0.071106	-0.13428	-0.35339	-0.009308	0.016785	-0.06134	-0.19455	-0.011444	0.2066	0.007019	-0.099182	-0.096893	-0.006409	0.007477	0.028381	-0.020294	0.11353	-0.016937	-0.001373	-0.005798
33.386	-0.00885	0.010071	-0.003052	0.013885	0.006104	0.013733	-0.092926	0.005188	0.020905	0.019226	0.030823	0.016479	0.098877	-0.11627	-0.14801	-0.013123	-0.016785	-0.06546	-0.26184	-0.015717	-0.13229	0.15411	-0.22369	-0.075378	0.013885	0.003815	0.066223	-0.017548	0.056458	-0.09613	0.000916	-0.017548
33.387	-0.004425	0.094604	-0.002289	0.005035	-0.0177	0.12466	-0.090637	-0.015106	0.034027	0.020447	0.026398	0.018158	0.089264	-0.08667	0.15472	0.003357	-0.031433	0.027008	0.058136	-0.066376	-0.40482	0.16525	-0.18768	-0.10284	0.030518	0.018921	0.10864	-0.025177	0.060272	-0.17181	-0.002136	-0.015106
33.388	0.014496	0.046387	-0.002594	0.011139	-0.080566	0.16342	-0.068665	-0.023804	0.069885	0.016174	-0.031128	0.02655	0.071869	0.028229	0.031586	0.02594	-0.038757	-0.1059	0.084076	-0.093536	-0.27252	0.070038	-0.087128	-0.028229	-0.013733	0.023499	0.085602	-0.030518	0.16129	-0.2742	-0.002441	-0.02243
